<svg width="35" height="35" viewBox="0 0 35 35" xmlns="http://www.w3.org/2000/svg" role="img" aria-label="PowerKit Addons PK monogram">
  <!-- Background -->
  <rect width="35" height="35" rx="8" fill="#8B3DFF"/>
  <!-- P (white) -->
  <path d="M8 8h10c4.5 0 7 2.4 7 6s-2.5 6-7 6H13v7H8V8zm5 5v7h5c2 0 3-1 3-3s-1-4-3-4h-5z" fill="#FFFFFF"/>
  <!-- K (white) -->
  <path d="M20 27v-6h3.8l3.2-4h5l-4.2 5.2L32 27h-5.2l-3.0-4h-1.8v4H20z" fill="#FFFFFF"/>
  <!-- Unique bolt notch inside K (cut effect using background color) -->
  <path d="M25 15 L23 20 H26 L24 25 L29 18 H26 L28 15 Z" fill="#8B3DFF"/>
</svg>
